<svg height="64" viewBox="0 0 50 64" width="50" xmlns="http://www.w3.org/2000/svg"><path d="m43.5152765 6.51901644c-4.3789371-4.20374489-10.4389747-6.51901644-17.0636035-6.51901644-10.1194041 0-16.3433271 4.14808096-19.78256275 7.62769777-4.2386591 4.28823483-6.66911025 9.98223223-6.66911025 15.62218113 0 7.0813712 2.96199197 12.5165562 7.9221699 14.5385982.33298957.1364263.6680914.2051365.99660798.2051365 1.04643216 0 1.87555132-.6847409 2.16281702-1.7829853.1674888-.6300709.5553968-2.1845607.724128-2.8593616.3610701-1.3325795.0693315-1.9735845-.718164-2.9016065-1.43458871-1.6975014-2.10268011-3.7047575-2.10268011-6.3171105 0-7.7595268 5.77786611-16.00623731 16.48658721-16.00623731 8.4969497 0 13.775083 4.82934281 13.775083 12.60315841 0 4.9056323-1.0566207 9.4487035-2.975908 12.792888-1.3336978 2.3237205-3.6789136 5.0936222-7.279177 5.0936222-1.5568505 0-2.9554067-.6395139-3.8378291-1.754532-.8335922-1.0540114-1.1084328-2.4155412-.7730825-3.8345986.3787135-1.60332.8952201-3.2757228 1.3950772-4.8924618.9116211-2.9529217 1.773418-5.7419579 1.773418-7.9671483 0-3.8060212-2.339873-6.3634556-5.8219748-6.3634556-4.4252824 0-7.8922257 4.4946137-7.8922257 10.2324714 0 2.8140104.7478598 4.9188027 1.0864406 5.7269237-.557509 2.3619895-3.8707553 16.4047066-4.499211 19.0527192-.3634308 1.5457923-2.55246448 13.7550787 1.0707851 14.7285762 4.0709219 1.0937714 7.709827-10.797187 8.0802157-12.1408247.3001877-1.0927774 1.3504716-5.2249544 1.9940858-7.7649939 1.9652597 1.8929463 5.1295304 3.1727197 8.2084415 3.1727197 5.8043313 0 11.0243157-2.6119802 14.6985077-7.3542239 3.5633613-4.5997291 5.5258875-11.0107724 5.5258875-18.0512654 0-5.5040195-2.3639775-10.9302586-6.4847235-14.88687056z" fill="#111" transform="translate(0 .382325)"/></svg>